<?xml version="1.0" encoding="utf-8"?>
<!-- Generator: Adobe Illustrator 27.9.6, SVG Export Plug-In . SVG Version: 9.03 Build 54986)  -->
<svg version="1.1" id="Layer_1" xmlns="http://www.w3.org/2000/svg" xmlns:xlink="http://www.w3.org/1999/xlink" x="0px" y="0px"
	 viewBox="0 0 158.4 129.6" style="enable-background:new 0 0 158.4 129.6;" xml:space="preserve">
<style type="text/css">
	.st0{fill:#1D2815;}
</style>
<g>
	<path class="st0" d="M41.5,30.2c3.3,28.7,4.1,58.8-8.2,85.5c-2.1,4.4-4.4,9.7-9.3,11.9c-8.7,4.4-19.4-2.2-21.2-11.3
		C0,103.2,8.6,87.6,13.4,75.7C19,63.3,26.7,52,34.3,40.7c9.2-13.6,21-25.8,35.3-34.1C74.4,3.9,79.8,1.4,86,1.1c0,0-0.3,0-0.3,0
		c1.6-0.2,2.9-0.2,4.5,0.3c2.9,0.9,4.1,4.1,2.9,6.8c-1.9,4-5.3,6.6-8.2,9.2c-4.4,3.7-8.9,7.2-13.1,10.9c-6.6,5.6-8.7,10.3-8.6,18.9
		c-0.1,4.6,1.6,8.8,7,7.8c1.7-0.3,3.6-1.3,5-2.5c1.2-1.1,2-2.4,2.9-4c5-9.8,7-20.3,11.2-30.8c0.3-1.3,2.2-1.3,2.3,0.1
		c1,13.4,10.1,27,23.6,30.2c6.8,1.6,15.2,0.4,20.7-3.6c5.5-3.9,13.2-2.6,17.1,2.9c5.2,7,0.9,17.6-7.6,19.1
		c-12.1,2.7-25,1.1-35.8-5.1C95,51.5,89.2,34.6,89.2,17.8c0,0,2.3,0.1,2.3,0.1c1.9,8.7,2.2,17.8,0.8,26.7C90.6,56,85.1,66,72.7,68.4
		c-13.1,2.5-23.1-7.5-22.4-20.4C51,30.3,58.9,24.1,73,15.6c4.8-3.1,10.6-5.9,14.1-10.1c0.1-0.1,0-0.1,0,0.2c0,0.3,0.2,0.9,0.5,1.2
		c0.3,0.3,0.4,0.3,0.4,0.2c0,0-0.2-0.1-0.4-0.1c-10.7-1.1-20.9,5.9-29,12.3C45.2,30.2,35.6,45.1,26.6,59.8
		c-4.9,8-8.7,16.4-11.8,25.2c-2.7,7.4-5.4,14.8-5.8,22.6c-0.2,4.3,0.5,8.9,4.1,11.4c2.8,2,6.4,2,8.1-0.9c0.6-0.8,1.4-3.2,1.9-4.5
		c5.4-14.9,5.3-31.3,1.7-46.6c-2.3-9.9-5.9-19.4-10.9-28.3c-4-7.1-1.4-16.1,5.7-20.1C28.7,13.2,40.8,19.7,41.5,30.2L41.5,30.2z"/>
</g>
</svg>
