<?xml version="1.0" encoding="utf-8"?>
<!-- Generator: Adobe Illustrator 27.9.6, SVG Export Plug-In . SVG Version: 9.03 Build 54986)  -->
<svg version="1.1" id="Layer_1" xmlns="http://www.w3.org/2000/svg" xmlns:xlink="http://www.w3.org/1999/xlink" x="0px" y="0px"
	 viewBox="0 0 1544.5 1544.5" style="enable-background:new 0 0 1544.5 1544.5;" xml:space="preserve">
<path d="M243.5,1292.5h231v-694h-231V1292.5z M489.5,384.5c-0.7-34.7-12.7-63.3-36-86s-54.3-34-93-34s-70.2,11.3-94.5,34
	s-36.5,51.3-36.5,86c0,34,11.8,62.5,35.5,85.5s54.5,34.5,92.5,34.5h1c39.3,0,71-11.5,95-34.5S489.5,418.5,489.5,384.5z
	 M1074.5,1292.5h231v-398c0-102.7-24.3-180.3-73-233s-113-79-193-79c-90.7,0-160.3,39-209,117h2v-101h-231c2,44,2,275.3,0,694h231
	v-388c0-25.3,2.3-44,7-56c10-23.3,25-43.2,45-59.5s44.7-24.5,74-24.5c77.3,0,116,52.3,116,157V1292.5z M1542.5,294.5v960
	c0,79.3-28.2,147.2-84.5,203.5s-124.2,84.5-203.5,84.5h-960c-79.3,0-147.2-28.2-203.5-84.5S6.5,1333.9,6.5,1254.5v-960
	C6.5,215.2,34.7,147.4,91,91S215.2,6.5,294.5,6.5h960c79.3,0,147.2,28.2,203.5,84.5S1542.5,215.2,1542.5,294.5z"/>
</svg>
